<svg width="150" height="16" viewBox="0 0 654 74" fill="none" xmlns="http://www.w3.org/2000/svg">
<path d="M47.468 34.0768H0.174805V38.7748H47.468V34.0768ZM47.468 0.459961H0.174805V5.26236H47.468V0.459961ZM0.174805 68.7376V73.54H47.468V68.7376H0.174805Z" fill="#d1421a"/>
<path d="M149.205 0.459961H143.672L114.126 66.6496L84.5812 0.459961H78.7349L111.308 73.54H116.632L149.205 0.459961Z" fill="#d1421a"/>
<path d="M230.032 34.0768H182.739V38.7748H230.032V34.0768ZM230.032 0.459961H182.739V5.26236H230.032V0.459961ZM182.739 68.7376V73.54H230.032V68.7376H182.739Z" fill="#d1421a"/>
<path d="M333.937 0.459961H328.612V63.9352L278.918 0.459961H274.429V73.54H279.753V10.0648L329.552 73.54H333.937V0.459961Z" fill="#d1421a"/>
<path d="M395.197 5.26236V73.54H400.522V5.26236H426.831V0.459961H368.889V5.26236H395.197Z" fill="#d1421a"/>
<path d="M461.683 0.459961V73.54H467.007V0.459961H461.683Z" fill="#d1421a"/>
<path d="M514.223 0.459961V5.26236H560.994V0.459961H514.223ZM514.223 73.54H519.547V41.2804H560.994V36.478H514.223V73.54Z" fill="#d1421a"/>
<path d="M624.384 48.3796L653.825 0.459961H648.292L621.879 43.4728L595.466 0.459961H589.619L619.06 48.3796V73.54H624.384V48.3796Z" fill="#d1421a"/>
</svg>
